<?xml version="1.0" encoding="UTF-8"?><svg xmlns="http://www.w3.org/2000/svg" xmlns:xlink="http://www.w3.org/1999/xlink" viewBox="0 0 706.8 870.24"><defs><style>.cls-1{stroke:url(#radial-gradient-6);}.cls-1,.cls-2,.cls-3,.cls-4,.cls-5,.cls-6,.cls-7,.cls-8,.cls-9,.cls-10,.cls-11,.cls-12,.cls-13,.cls-14,.cls-15,.cls-16,.cls-17,.cls-18{stroke-miterlimit:10;}.cls-1,.cls-3,.cls-4,.cls-5,.cls-6,.cls-7,.cls-8,.cls-10,.cls-11,.cls-12,.cls-13,.cls-14,.cls-15,.cls-16,.cls-17,.cls-18{fill:#fff;}.cls-1,.cls-3,.cls-4,.cls-5,.cls-6,.cls-8,.cls-10,.cls-11,.cls-12,.cls-13,.cls-16,.cls-17,.cls-18{stroke-width:2px;}.cls-2{filter:url(#drop-shadow-1);stroke:url(#radial-gradient);}.cls-2,.cls-7,.cls-9,.cls-14,.cls-15{stroke-width:6px;}.cls-19{filter:url(#drop-shadow-7);}.cls-3{stroke:url(#radial-gradient-15);}.cls-4{stroke:url(#radial-gradient-11);}.cls-5{stroke:url(#radial-gradient-14);}.cls-6{stroke:url(#radial-gradient-5);}.cls-7{filter:url(#drop-shadow-3);stroke:url(#linear-gradient);}.cls-8{stroke:url(#radial-gradient-10);}.cls-20{filter:url(#drop-shadow-2);}.cls-9{filter:url(#drop-shadow-6);stroke:url(#radial-gradient-4);}.cls-10{stroke:url(#radial-gradient-7);}.cls-11{stroke:url(#radial-gradient-9);}.cls-12{stroke:url(#radial-gradient-13);}.cls-13{stroke:url(#radial-gradient-3);}.cls-14{filter:url(#drop-shadow-4);stroke:url(#linear-gradient-2);}.cls-15{filter:url(#drop-shadow-5);stroke:url(#linear-gradient-3);}.cls-16{stroke:url(#radial-gradient-12);}.cls-17{stroke:url(#radial-gradient-8);}.cls-18{stroke:url(#radial-gradient-2);}</style><radialGradient id="radial-gradient" cx="334.95" cy="498.4" fx="334.95" fy="498.4" r="257.24" gradientTransform="translate(-346.98 120.41) rotate(-30.48) scale(1.45 1.24) skewX(-3.44)" gradientUnits="userSpaceOnUse"><stop offset=".12" stop-color="#00aeef"/><stop offset="1" stop-color="#ee2a7b"/></radialGradient><filter id="drop-shadow-1" filterUnits="userSpaceOnUse"><feOffset dx="7" dy="7"/><feGaussianBlur result="blur" stdDeviation="5"/><feFlood flood-color="#000" flood-opacity=".75"/><feComposite in2="blur" operator="in"/><feComposite in="SourceGraphic"/></filter><filter id="drop-shadow-2" filterUnits="userSpaceOnUse"><feOffset dx="7" dy="7"/><feGaussianBlur result="blur-2" stdDeviation="5"/><feFlood flood-color="#000" flood-opacity=".75"/><feComposite in2="blur-2" operator="in"/><feComposite in="SourceGraphic"/></filter><radialGradient id="radial-gradient-2" cx="166.01" cy="696.94" fx="166.01" fy="696.94" r="11.23" gradientTransform="translate(-15.84 -207.33) scale(1.1 1.3)" xlink:href="#radial-gradient"/><radialGradient id="radial-gradient-3" cx="183.05" cy="696.94" fx="183.05" fy="696.94" r="11.23" gradientTransform="translate(-15.84 -207.33) scale(1.1 1.3)" xlink:href="#radial-gradient"/><linearGradient id="linear-gradient" x1="87.22" y1="439.72" x2="261.66" y2="439.72" gradientUnits="userSpaceOnUse"><stop offset="0" stop-color="#00aeef"/><stop offset="1" stop-color="#ee2a7b"/></linearGradient><filter id="drop-shadow-3" filterUnits="userSpaceOnUse"><feOffset dx="7" dy="7"/><feGaussianBlur result="blur-3" stdDeviation="5"/><feFlood flood-color="#000" flood-opacity=".75"/><feComposite in2="blur-3" operator="in"/><feComposite in="SourceGraphic"/></filter><linearGradient id="linear-gradient-2" x1="273.4" y1="525.94" x2="442.15" y2="525.94" gradientUnits="userSpaceOnUse"><stop offset="0" stop-color="#00aeef"/><stop offset="1" stop-color="#ee2a7b"/></linearGradient><filter id="drop-shadow-4" filterUnits="userSpaceOnUse"><feOffset dx="7" dy="7"/><feGaussianBlur result="blur-4" stdDeviation="5"/><feFlood flood-color="#000" flood-opacity=".75"/><feComposite in2="blur-4" operator="in"/><feComposite in="SourceGraphic"/></filter><linearGradient id="linear-gradient-3" x1="454.81" y1="439.18" x2="629" y2="439.18" gradientUnits="userSpaceOnUse"><stop offset="0" stop-color="#00aeef"/><stop offset="1" stop-color="#ec008c"/></linearGradient><filter id="drop-shadow-5" filterUnits="userSpaceOnUse"><feOffset dx="7" dy="7"/><feGaussianBlur result="blur-5" stdDeviation="5"/><feFlood flood-color="#000" flood-opacity=".75"/><feComposite in2="blur-5" operator="in"/><feComposite in="SourceGraphic"/></filter><radialGradient id="radial-gradient-4" cx="542.04" cy="377.67" fx="542.04" fy="377.67" r="65.1" gradientUnits="userSpaceOnUse"><stop offset="0" stop-color="#00aeef"/><stop offset="1" stop-color="#ee2a7b"/></radialGradient><filter id="drop-shadow-6" filterUnits="userSpaceOnUse"><feOffset dx="7" dy="7"/><feGaussianBlur result="blur-6" stdDeviation="5"/><feFlood flood-color="#000" flood-opacity=".75"/><feComposite in2="blur-6" operator="in"/><feComposite in="SourceGraphic"/></filter><filter id="drop-shadow-7" filterUnits="userSpaceOnUse"><feOffset dx="7" dy="7"/><feGaussianBlur result="blur-7" stdDeviation="5"/><feFlood flood-color="#000" flood-opacity=".75"/><feComposite in2="blur-7" operator="in"/><feComposite in="SourceGraphic"/></filter><radialGradient id="radial-gradient-5" cx="214.46" cy="699.19" fx="214.46" fy="699.19" r="14.46" xlink:href="#radial-gradient-4"/><radialGradient id="radial-gradient-6" cx="244.73" cy="699.19" fx="244.73" fy="699.19" r="14.71" xlink:href="#radial-gradient-4"/><radialGradient id="radial-gradient-7" cx="274.68" cy="699.19" fx="274.68" fy="699.19" r="15.58" xlink:href="#radial-gradient-4"/><radialGradient id="radial-gradient-8" cx="306.54" cy="699.19" fx="306.54" fy="699.19" r="14.71" xlink:href="#radial-gradient-4"/><radialGradient id="radial-gradient-9" cx="335.11" cy="699.19" fx="335.11" fy="699.19" r="13.73" xlink:href="#radial-gradient-4"/><radialGradient id="radial-gradient-10" cx="362.5" cy="699.19" fx="362.5" fy="699.19" r="14.47" xlink:href="#radial-gradient-4"/><radialGradient id="radial-gradient-11" cx="393.62" cy="699.19" fx="393.62" fy="699.19" r="14.29" xlink:href="#radial-gradient-4"/><radialGradient id="radial-gradient-12" cx="425.97" cy="698.77" fx="425.97" fy="698.77" r="15.32" xlink:href="#radial-gradient-4"/><radialGradient id="radial-gradient-13" cx="459.1" cy="699.19" fx="459.1" fy="699.19" r="14.71" xlink:href="#radial-gradient-4"/><radialGradient id="radial-gradient-14" cx="488.9" cy="699.2" fx="488.9" fy="699.2" r="14.77" xlink:href="#radial-gradient-4"/><radialGradient id="radial-gradient-15" cx="520.76" cy="699.19" fx="520.76" fy="699.19" r="16.25" xlink:href="#radial-gradient-4"/></defs><g id="Layer_7"><polygon class="cls-2" points="675.68 641.25 340.39 844.66 11.19 631.55 17.27 215.04 352.56 11.64 681.76 224.75 675.68 641.25"/></g><g id="Layer_8"><g class="cls-20"><path class="cls-18" d="M169.03,707.61l3.87,5.42h-9.68v-15.03l-3.48-4.81h3.48v-12.84h9.72l-3.91,5.32v21.94Z"/><path class="cls-13" d="M188.19,697.99v15.03h-9.68l3.87-5.42v-21.94l-3.91-5.32h9.72v12.84h3.48l-3.48,4.81Z"/></g></g><g id="Layer_1"><polygon class="cls-7" points="99.97 514.68 90.22 505.18 90.37 205.67 157.52 272.81 257.89 374.11 258.64 673.56 216 629.36 217.66 392.33 194.96 370.63 193.97 609.47 154.67 568.63 153.52 328.19 131.18 305.39 131.18 546.01 99.97 514.68"/></g><g id="Layer_3"><polygon class="cls-14" points="276.43 418.7 276.43 378.39 439.15 378.39 438.53 673.47 276.89 672.33 276.41 505.77 317 505.77 317 632.28 398.13 632.28 398.13 419.18 276.43 418.7"/></g><g id="Layer_4"><polygon class="cls-15" points="457.86 672.33 457.81 377.05 457.86 370.63 625.95 205.87 624.63 383.54 498.64 508.45 499.31 630.02 457.86 672.33"/></g><g id="Layer_5"><polygon class="cls-9" points="498.67 392.49 499.31 449.99 585.43 363.1 585.41 305.4 498.67 392.49"/></g><g id="Layer_6"><g class="cls-19"><path class="cls-6" d="M220.55,686.59l7.99,12.63-7.99,12.56h-20.37v-25.2h20.37ZM207.7,708.08h7.63l5.76-8.85-5.76-8.93h-7.63v17.78Z"/><path class="cls-1" d="M254.97,708.08l3.24,3.71h-28.22v-25.2h28.29l-3.2,3.71h-17.53v7.05h19.04v3.71h-19.04v7.02h17.42Z"/><path class="cls-10" d="M259,686.59h7.38l8.31,16.81,8.28-16.81h7.38l-13.32,25.2h-4.72l-13.32-25.2Z"/><path class="cls-17" d="M316.78,708.08l3.24,3.71h-28.22v-25.2h28.29l-3.2,3.71h-17.53v7.05h19.04v3.71h-19.04v7.02h17.42Z"/><path class="cls-11" d="M346.77,708.08l-3.24,3.71h-21.27v-25.2h7.52v21.49h16.99Z"/><path class="cls-8" d="M354.33,711.79l-6.12-6.95v-18.25h28.58v25.2h-22.46ZM355.73,690.3v12.92l4.28,4.86h9.25v-17.78h-13.53Z"/><path class="cls-4" d="M387.23,702.86v8.93h-7.56v-25.2h27.9v16.27h-20.34ZM387.16,690.3v8.85h12.85v-8.85h-12.85Z"/><path class="cls-16" d="M410.45,711.79v-25.2l15.51,10.08,15.51-10.08v25.2h-7.45v-14.43l-8.06,5.11-7.99-5.11v14.43h-7.52Z"/><path class="cls-12" d="M469.35,708.08l3.24,3.71h-28.22v-25.2h28.29l-3.2,3.71h-17.53v7.05h19.04v3.71h-19.04v7.02h17.42Z"/><path class="cls-5" d="M502.97,711.79l-20.62-13.71v13.71h-7.52v-25.2l20.73,13.61v-13.61h7.42v25.2Z"/><path class="cls-3" d="M533.89,690.3h-9.32v21.49h-7.52v-21.49h-9.43l-3.2-3.71h32.68l-3.2,3.71Z"/></g></g></svg>